<svg version="1.0" xmlns="http://www.w3.org/2000/svg" width="682.667" height="682.667" viewBox="0 0 512 512"><path d="M237 .7c-37.1 3.5-65.3 11.4-96.1 26.9C100.3 47.9 62.7 82.4 38 122 20.1 150.6 7.1 187.5 1.8 224.5c-1.7 11.8-1.7 51.2 0 63 4.2 29.5 12 55.3 24.2 80 13.7 28 27.2 46.8 49.4 69.1 22.1 22 41.2 35.7 68.1 48.9 18.8 9.2 30.9 13.7 50 18.5 50 12.6 100.2 10.2 149-7.1 14.9-5.3 40.7-18.2 54-27.1 36.5-24.3 66.7-57.8 86.6-96.3 18.1-34.8 27.1-69.4 28.6-109 1.5-42.6-7.3-83.2-26.3-121.4-12.4-25-26.3-44.7-45.8-64.8-21.6-22.4-42.8-37.8-71.1-51.8C338.9 11.9 311.3 4 278.5 1 268.3.1 245.2-.1 237 .7zm-44 129.9c8 2.3 17.8 7.8 25.2 13.8 13.6 11.2 27.1 31.7 31.5 47.6 2.2 8.2 2.5 32.1.4 42.5-9.4 48.2-45.3 94.5-108.1 139.4-16.9 12-20.9 12.7-27.8 4.3-10.8-13.1-10.4-14.5 7.7-30.1 23.7-20.5 37.1-35.8 45.6-52.3 3.8-7.3 3.9-7.7 2.2-9.6-.9-1-3.6-2.5-6-3.1-7.1-2.2-26.5-11.8-33.2-16.5-8.7-6.3-18.4-16.4-22.8-23.8-6.5-10.9-8.9-20.3-9.4-35.8-.6-17 1-25.1 7.3-38 10.2-20.8 32-36.2 56.4-39.9 8.6-1.3 24.2-.6 31 1.5zm176 0c19.6 5.8 41.1 26.2 51.6 48.9 5.3 11.4 6.8 19.1 6.7 34-.2 55.2-37.3 109.1-111.5 161.6-16 11.4-18.8 11.5-27.3 1.2-6-7.2-7.1-11.6-4-16 .8-1.2 7.9-7.8 15.8-14.6 20.5-17.8 30.2-28.7 39.7-44.2 5.9-9.6 7.4-13.3 6-15-.6-.7-5.5-3-10.8-5-18.1-6.9-35.1-17.7-44.1-28-16-18.3-21.7-45.1-15.1-71 6-23.6 25.1-43 49.5-50.4 3.9-1.2 9.7-2.5 13-3.1 8.1-1.2 23.8-.4 30.5 1.6z"/></svg>