<svg xmlns="http://www.w3.org/2000/svg" viewBox="0 0 240 240"><g><g class="m m0b"><use href="#bgq"/><g><use href="#n1"/><use href="#bt"/></g><g transform="translate(120)"><use href="#n2"/><use href="#bt"/></g><g transform="translate(0 120)"><use href="#n3"/><use href="#bt"/></g><g transform="translate(120 120)"><use href="#n4"/><use href="#bt"/></g></g><g class="m m0c"><use href="#bgq"/><g><use href="#n1"/><use href="#bt"/></g><g transform="translate(120)"><use href="#n2" fill="#ff0"/><use href="#bt"/></g><g transform="translate(0 120)"><use href="#n3" fill="red"/><use href="#bt"/></g><g transform="translate(120 120)"><use href="#n4" fill="#00f"/><use href="#bt"/></g></g><g class="m m1b"><use href="#bgq"/><g><use href="#l1" stroke="#000"/><use href="#bt"/></g><g transform="translate(120)"><use href="#l2" stroke="#000"/><use href="#bt"/></g><g transform="translate(0 120)"><use href="#l3" stroke="#000"/><use href="#bt"/></g><g transform="translate(120 120)"><use href="#l4" stroke="#000"/><use href="#bt"/></g></g><g class="m m1c"><use href="#bgq"/><g><use href="#l1" stroke="#000"/><use href="#bt"/></g><g transform="translate(120)"><use href="#l2" stroke="#ff0"/><use href="#bt"/></g><g transform="translate(0 120)"><use href="#l3" stroke="red"/><use href="#bt"/></g><g transform="translate(120 120)"><use href="#l4" stroke="#00f"/><use href="#bt"/></g></g><g class="m m2b"><use href="#bgq"/><g><use href="#l1" stroke="#000"/><use href="#bt"/></g><g transform="translate(120)"><use href="#l1" stroke="#000"/><use href="#l2" stroke="#000"/><use href="#bt"/></g><g transform="translate(0 120)"><use href="#l1" stroke="#000"/><use href="#l2" stroke="#000"/><use href="#l3" stroke="#000"/><use href="#bt"/></g><g transform="translate(120 120)"><use href="#l1" stroke="#000"/><use href="#l2" stroke="#000"/><use href="#l3" stroke="#000"/><use href="#l4" stroke="#000"/><use href="#bt"/></g></g><g class="m m2c"><use href="#bgq"/><g><use href="#l1" stroke="#000"/><use href="#bt"/></g><g transform="translate(120)"><use href="#l1" stroke="#000"/><use href="#l2" stroke="#ff0"/><use href="#bt"/></g><g transform="translate(0 120)"><use href="#l1" stroke="#000"/><use href="#l2" stroke="#ff0"/><use href="#l3" stroke="red"/><use href="#bt"/></g><g transform="translate(120 120)"><use href="#l1" stroke="#000"/><use href="#l2" stroke="#ff0"/><use href="#l3" stroke="red"/><use href="#l4" stroke="#00f"/><use href="#bt"/></g></g></g><defs><text x="60" y="95.102" font-size="90" font-family="sans-serif" text-anchor="middle" id="n1">1</text><text x="60" y="95.102" font-size="90" font-family="sans-serif" text-anchor="middle" id="n2">2</text><text x="60" y="95.102" font-size="90" font-family="sans-serif" text-anchor="middle" id="n3">3</text><text x="60" y="95.102" font-size="90" font-family="sans-serif" text-anchor="middle" id="n4">4</text><g id="l1"><path d="M6.667 0v120M13.333 0v120M20 0v120M26.667 0v120M33.333 0v120M40 0v120M46.667 0v120M53.333 0v120M60 0v120M66.667 0v120M73.333 0v120M80 0v120M86.667 0v120M93.333 0v120M100 0v120M106.667 0v120M113.333 0v120M120 0v120"/></g><g id="l2"><path d="M0 6.667h120M0 13.333h120M0 20h120M0 26.667h120M0 33.333h120M0 40h120M0 46.667h120M0 53.333h120M0 60h120M0 66.667h120M0 73.333h120M0 80h120M0 86.667h120M0 93.333h120M0 100h120M0 106.667h120M0 113.333h120M0 120h120"/></g><g id="l3"><path d="M0 6.667L6.667 0M0 13.333L13.333 0M0 20L20 0M0 26.667L26.667 0M0 33.333L33.333 0M0 40L40 0M0 46.667L46.667 0M0 53.333L53.333 0M0 60L60 0M0 66.667L66.667 0M0 73.333L73.333 0M0 80L80 0M0 86.667L86.667 0M0 93.333L93.333 0M0 100L100 0M0 106.667L106.667 0M0 113.333L113.333 0M0 120L120 0M6.667 120L120 6.667M13.333 120L120 13.333M20 120L120 20M26.667 120L120 26.667M33.333 120L120 33.333M40 120l80-80M46.667 120L120 46.667M53.333 120L120 53.333M60 120l60-60M66.667 120L120 66.667M73.333 120L120 73.333M80 120l40-40M86.667 120L120 86.667M93.333 120L120 93.333M100 120l20-20M106.667 120L120 106.667M113.333 120l6.667-6.667"/></g><g id="l4"><path d="M0 0l120 120M0 6.667L113.333 120M0 13.333L106.667 120M0 20l100 100M0 26.667L93.333 120M0 33.333L86.667 120M0 40l80 80M0 46.667L73.333 120M0 53.333L66.667 120M0 60l60 60M0 66.667L53.333 120M0 73.333L46.667 120M0 80l40 40M0 86.667L33.333 120M0 93.333L26.667 120M0 100l20 20M0 106.667L13.333 120M0 113.333L6.667 120M6.667 0L120 113.333M13.333 0L120 106.667M20 0l100 100M26.667 0L120 93.333M33.333 0L120 86.667M40 0l80 80M46.667 0L120 73.333M53.333 0L120 66.667M60 0l60 60M66.667 0L120 53.333M73.333 0L120 46.667M80 0l40 40M86.667 0L120 33.333M93.333 0L120 26.667M100 0l20 20M106.667 0L120 13.333M113.333 0L120 6.667"/></g><path stroke-width="2" stroke="#000" fill="none" id="bt" d="M0 0h120v120H0z"/></defs></svg>